# xmcd
#
# Track frame offsets:
#	150
#	16667
#	35187
#	49957
#	72615
#	89275
#	109977
#	128702
#	148182
#	175200
#	194030
#	213887
#	228270
#	248142
#
# Disc length: 3598 seconds
#
# Revision: 1
# Processed by: cddbd v1.4PL0 Copyright (c) Steve Scherf et al.
# Submitted via: EasyCDDAExtractor 5.0.6
#
DISCID=d10e0c0e
DTITLE=Jaakko Löytty - Nälkämaan Lauluja
DYEAR=2001
DGENRE=Gospel
TTITLE0=Musta tuntuu
TTITLE1=Takinkääntäjä
TTITLE2=Kuule, pastori
TTITLE3=Woo - i - ooi
TTITLE4=Mun on nälkä
TTITLE5=Lehmäterapiaa
TTITLE6=Kalamiehen blues
TTITLE7=Vallankumous
TTITLE8=Krisse
TTITLE9=Miksi kiusaat
TTITLE10=Hiljaa hiipii ilves
TTITLE11=Böndeltä blues
TTITLE12=Nälkämaan laulu
TTITLE13=Vielä tahdon
EXTD=
EXTT0=
EXTT1=
EXTT2=
EXTT3=
EXTT4=
EXTT5=
EXTT6=
EXTT7=
EXTT8=
EXTT9=
EXTT10=
EXTT11=
EXTT12=
EXTT13=
PLAYORDER=
